<mxfile host="Electron" agent="Mozilla/5.0 (X11; Linux x86_64) AppleWebKit/537.36 (KHTML, like Gecko) draw.io/27.0.9 Chrome/134.0.6998.205 Electron/35.5.1 Safari/537.36" version="27.0.9">
  <diagram name="Page-1" id="ISrgw7-qab9hZkAx_0kg">
    <mxGraphModel dx="3080" dy="840" grid="1" gridSize="10" guides="1" tooltips="1" connect="1" arrows="1" fold="1" page="1" pageScale="1" pageWidth="827" pageHeight="1169" math="0" shadow="0">
      <root>
        <mxCell id="0" />
        <mxCell id="1" parent="0" />
        <mxCell id="my7_cBCObxHFk0cWhPBb-9" style="edgeStyle=orthogonalEdgeStyle;rounded=0;orthogonalLoop=1;jettySize=auto;html=1;exitX=0.5;exitY=1;exitDx=0;exitDy=0;entryX=0.5;entryY=0;entryDx=0;entryDy=0;" parent="1" source="my7_cBCObxHFk0cWhPBb-1" target="my7_cBCObxHFk0cWhPBb-3" edge="1">
          <mxGeometry relative="1" as="geometry" />
        </mxCell>
        <mxCell id="my7_cBCObxHFk0cWhPBb-10" style="edgeStyle=orthogonalEdgeStyle;rounded=0;orthogonalLoop=1;jettySize=auto;html=1;exitX=0.5;exitY=1;exitDx=0;exitDy=0;entryX=0.5;entryY=0;entryDx=0;entryDy=0;" parent="1" source="my7_cBCObxHFk0cWhPBb-1" target="my7_cBCObxHFk0cWhPBb-4" edge="1">
          <mxGeometry relative="1" as="geometry" />
        </mxCell>
        <mxCell id="my7_cBCObxHFk0cWhPBb-11" style="edgeStyle=orthogonalEdgeStyle;rounded=0;orthogonalLoop=1;jettySize=auto;html=1;exitX=0.5;exitY=1;exitDx=0;exitDy=0;" parent="1" source="my7_cBCObxHFk0cWhPBb-1" target="my7_cBCObxHFk0cWhPBb-5" edge="1">
          <mxGeometry relative="1" as="geometry" />
        </mxCell>
        <mxCell id="my7_cBCObxHFk0cWhPBb-13" style="edgeStyle=orthogonalEdgeStyle;rounded=0;orthogonalLoop=1;jettySize=auto;html=1;exitX=0.5;exitY=1;exitDx=0;exitDy=0;entryX=0.5;entryY=0;entryDx=0;entryDy=0;" parent="1" source="my7_cBCObxHFk0cWhPBb-1" target="my7_cBCObxHFk0cWhPBb-7" edge="1">
          <mxGeometry relative="1" as="geometry" />
        </mxCell>
        <mxCell id="my7_cBCObxHFk0cWhPBb-20" style="edgeStyle=orthogonalEdgeStyle;rounded=0;orthogonalLoop=1;jettySize=auto;html=1;exitX=0;exitY=0.5;exitDx=0;exitDy=0;" parent="1" source="my7_cBCObxHFk0cWhPBb-1" target="my7_cBCObxHFk0cWhPBb-19" edge="1">
          <mxGeometry relative="1" as="geometry" />
        </mxCell>
        <mxCell id="my7_cBCObxHFk0cWhPBb-21" style="edgeStyle=orthogonalEdgeStyle;rounded=0;orthogonalLoop=1;jettySize=auto;html=1;exitX=0;exitY=0.5;exitDx=0;exitDy=0;entryX=0.5;entryY=0;entryDx=0;entryDy=0;" parent="1" source="my7_cBCObxHFk0cWhPBb-1" target="my7_cBCObxHFk0cWhPBb-15" edge="1">
          <mxGeometry relative="1" as="geometry" />
        </mxCell>
        <mxCell id="QZp8M_Qck0eet74uFJcQ-3" style="edgeStyle=orthogonalEdgeStyle;rounded=0;orthogonalLoop=1;jettySize=auto;html=1;exitX=1;exitY=0.5;exitDx=0;exitDy=0;entryX=0.5;entryY=0;entryDx=0;entryDy=0;" edge="1" parent="1" source="my7_cBCObxHFk0cWhPBb-1" target="QZp8M_Qck0eet74uFJcQ-2">
          <mxGeometry relative="1" as="geometry" />
        </mxCell>
        <mxCell id="my7_cBCObxHFk0cWhPBb-1" value="Engine" style="rounded=0;whiteSpace=wrap;html=1;" parent="1" vertex="1">
          <mxGeometry x="320" y="80" width="120" height="60" as="geometry" />
        </mxCell>
        <mxCell id="my7_cBCObxHFk0cWhPBb-3" value="IOHandler" style="rounded=0;whiteSpace=wrap;html=1;" parent="1" vertex="1">
          <mxGeometry y="240" width="120" height="60" as="geometry" />
        </mxCell>
        <mxCell id="my7_cBCObxHFk0cWhPBb-4" value="Window" style="rounded=0;whiteSpace=wrap;html=1;" parent="1" vertex="1">
          <mxGeometry x="160" y="240" width="120" height="60" as="geometry" />
        </mxCell>
        <mxCell id="my7_cBCObxHFk0cWhPBb-5" value="AudioHandler" style="rounded=0;whiteSpace=wrap;html=1;" parent="1" vertex="1">
          <mxGeometry x="320" y="240" width="120" height="60" as="geometry" />
        </mxCell>
        <mxCell id="my7_cBCObxHFk0cWhPBb-14" style="edgeStyle=orthogonalEdgeStyle;rounded=0;orthogonalLoop=1;jettySize=auto;html=1;exitX=0.5;exitY=1;exitDx=0;exitDy=0;" parent="1" source="my7_cBCObxHFk0cWhPBb-7" target="my7_cBCObxHFk0cWhPBb-8" edge="1">
          <mxGeometry relative="1" as="geometry" />
        </mxCell>
        <mxCell id="my7_cBCObxHFk0cWhPBb-41" style="edgeStyle=orthogonalEdgeStyle;rounded=0;orthogonalLoop=1;jettySize=auto;html=1;exitX=1;exitY=0.5;exitDx=0;exitDy=0;entryX=0.5;entryY=0;entryDx=0;entryDy=0;" parent="1" source="my7_cBCObxHFk0cWhPBb-7" target="my7_cBCObxHFk0cWhPBb-40" edge="1">
          <mxGeometry relative="1" as="geometry" />
        </mxCell>
        <mxCell id="my7_cBCObxHFk0cWhPBb-7" value="Renderer" style="rounded=0;whiteSpace=wrap;html=1;" parent="1" vertex="1">
          <mxGeometry x="490" y="240" width="120" height="60" as="geometry" />
        </mxCell>
        <mxCell id="my7_cBCObxHFk0cWhPBb-8" value="RenderQueue" style="rounded=0;whiteSpace=wrap;html=1;" parent="1" vertex="1">
          <mxGeometry x="490" y="340" width="120" height="60" as="geometry" />
        </mxCell>
        <mxCell id="my7_cBCObxHFk0cWhPBb-18" style="edgeStyle=orthogonalEdgeStyle;rounded=0;orthogonalLoop=1;jettySize=auto;html=1;exitX=0.5;exitY=1;exitDx=0;exitDy=0;entryX=0.5;entryY=0;entryDx=0;entryDy=0;" parent="1" source="my7_cBCObxHFk0cWhPBb-15" target="my7_cBCObxHFk0cWhPBb-16" edge="1">
          <mxGeometry relative="1" as="geometry" />
        </mxCell>
        <mxCell id="my7_cBCObxHFk0cWhPBb-15" value="PhysicsHandler" style="rounded=0;whiteSpace=wrap;html=1;" parent="1" vertex="1">
          <mxGeometry x="-160" y="240" width="120" height="60" as="geometry" />
        </mxCell>
        <mxCell id="my7_cBCObxHFk0cWhPBb-16" value="UpdateQueue" style="rounded=0;whiteSpace=wrap;html=1;" parent="1" vertex="1">
          <mxGeometry x="-160" y="340" width="120" height="60" as="geometry" />
        </mxCell>
        <mxCell id="my7_cBCObxHFk0cWhPBb-24" style="edgeStyle=orthogonalEdgeStyle;rounded=0;orthogonalLoop=1;jettySize=auto;html=1;exitX=0.5;exitY=1;exitDx=0;exitDy=0;entryX=0.5;entryY=0;entryDx=0;entryDy=0;" parent="1" source="my7_cBCObxHFk0cWhPBb-19" target="my7_cBCObxHFk0cWhPBb-22" edge="1">
          <mxGeometry relative="1" as="geometry" />
        </mxCell>
        <mxCell id="my7_cBCObxHFk0cWhPBb-25" style="edgeStyle=orthogonalEdgeStyle;rounded=0;orthogonalLoop=1;jettySize=auto;html=1;exitX=0;exitY=0.5;exitDx=0;exitDy=0;entryX=0.5;entryY=0;entryDx=0;entryDy=0;" parent="1" source="my7_cBCObxHFk0cWhPBb-19" target="my7_cBCObxHFk0cWhPBb-23" edge="1">
          <mxGeometry relative="1" as="geometry" />
        </mxCell>
        <mxCell id="my7_cBCObxHFk0cWhPBb-27" style="edgeStyle=orthogonalEdgeStyle;rounded=0;orthogonalLoop=1;jettySize=auto;html=1;exitX=0;exitY=0.5;exitDx=0;exitDy=0;entryX=0.5;entryY=0;entryDx=0;entryDy=0;" parent="1" source="my7_cBCObxHFk0cWhPBb-19" target="my7_cBCObxHFk0cWhPBb-26" edge="1">
          <mxGeometry relative="1" as="geometry" />
        </mxCell>
        <mxCell id="my7_cBCObxHFk0cWhPBb-19" value="World" style="rounded=0;whiteSpace=wrap;html=1;" parent="1" vertex="1">
          <mxGeometry x="-320" y="240" width="120" height="60" as="geometry" />
        </mxCell>
        <mxCell id="my7_cBCObxHFk0cWhPBb-48" style="edgeStyle=orthogonalEdgeStyle;rounded=0;orthogonalLoop=1;jettySize=auto;html=1;exitX=0.5;exitY=1;exitDx=0;exitDy=0;entryX=0;entryY=0.5;entryDx=0;entryDy=0;dashed=1;dashPattern=8 8;" parent="1" source="my7_cBCObxHFk0cWhPBb-22" target="my7_cBCObxHFk0cWhPBb-42" edge="1">
          <mxGeometry relative="1" as="geometry" />
        </mxCell>
        <mxCell id="my7_cBCObxHFk0cWhPBb-22" value="StaticMesh" style="rounded=0;whiteSpace=wrap;html=1;" parent="1" vertex="1">
          <mxGeometry x="-320" y="340" width="120" height="60" as="geometry" />
        </mxCell>
        <mxCell id="my7_cBCObxHFk0cWhPBb-34" style="edgeStyle=orthogonalEdgeStyle;rounded=0;orthogonalLoop=1;jettySize=auto;html=1;exitX=0.5;exitY=1;exitDx=0;exitDy=0;entryX=0.5;entryY=0;entryDx=0;entryDy=0;" parent="1" source="my7_cBCObxHFk0cWhPBb-23" target="my7_cBCObxHFk0cWhPBb-33" edge="1">
          <mxGeometry relative="1" as="geometry" />
        </mxCell>
        <mxCell id="my7_cBCObxHFk0cWhPBb-23" value="Items" style="rounded=0;whiteSpace=wrap;html=1;" parent="1" vertex="1">
          <mxGeometry x="-480" y="340" width="120" height="60" as="geometry" />
        </mxCell>
        <mxCell id="my7_cBCObxHFk0cWhPBb-31" style="edgeStyle=orthogonalEdgeStyle;rounded=0;orthogonalLoop=1;jettySize=auto;html=1;exitX=0.5;exitY=1;exitDx=0;exitDy=0;" parent="1" source="my7_cBCObxHFk0cWhPBb-26" edge="1">
          <mxGeometry relative="1" as="geometry">
            <mxPoint x="-580" y="440" as="targetPoint" />
          </mxGeometry>
        </mxCell>
        <mxCell id="my7_cBCObxHFk0cWhPBb-26" value="Entities" style="rounded=0;whiteSpace=wrap;html=1;" parent="1" vertex="1">
          <mxGeometry x="-640" y="340" width="120" height="60" as="geometry" />
        </mxCell>
        <mxCell id="my7_cBCObxHFk0cWhPBb-32" value="EntityPool" style="rounded=0;whiteSpace=wrap;html=1;" parent="1" vertex="1">
          <mxGeometry x="-640" y="440" width="120" height="60" as="geometry" />
        </mxCell>
        <mxCell id="my7_cBCObxHFk0cWhPBb-33" value="ItemPool" style="rounded=0;whiteSpace=wrap;html=1;" parent="1" vertex="1">
          <mxGeometry x="-480" y="440" width="120" height="60" as="geometry" />
        </mxCell>
        <mxCell id="my7_cBCObxHFk0cWhPBb-45" style="edgeStyle=orthogonalEdgeStyle;rounded=0;orthogonalLoop=1;jettySize=auto;html=1;exitX=1;exitY=0.5;exitDx=0;exitDy=0;entryX=0;entryY=0.5;entryDx=0;entryDy=0;" parent="1" source="my7_cBCObxHFk0cWhPBb-40" target="my7_cBCObxHFk0cWhPBb-44" edge="1">
          <mxGeometry relative="1" as="geometry" />
        </mxCell>
        <mxCell id="my7_cBCObxHFk0cWhPBb-47" style="edgeStyle=orthogonalEdgeStyle;rounded=0;orthogonalLoop=1;jettySize=auto;html=1;exitX=0.5;exitY=1;exitDx=0;exitDy=0;entryX=0.5;entryY=0;entryDx=0;entryDy=0;" parent="1" source="my7_cBCObxHFk0cWhPBb-40" target="my7_cBCObxHFk0cWhPBb-42" edge="1">
          <mxGeometry relative="1" as="geometry" />
        </mxCell>
        <mxCell id="my7_cBCObxHFk0cWhPBb-40" value="MeshRenderer" style="rounded=0;whiteSpace=wrap;html=1;" parent="1" vertex="1">
          <mxGeometry x="640" y="340" width="120" height="60" as="geometry" />
        </mxCell>
        <mxCell id="my7_cBCObxHFk0cWhPBb-42" value="StaticMesh" style="rounded=0;whiteSpace=wrap;html=1;" parent="1" vertex="1">
          <mxGeometry x="640" y="440" width="120" height="60" as="geometry" />
        </mxCell>
        <mxCell id="my7_cBCObxHFk0cWhPBb-43" value="OctTree" style="rounded=0;whiteSpace=wrap;html=1;" parent="1" vertex="1">
          <mxGeometry x="800" y="440" width="120" height="60" as="geometry" />
        </mxCell>
        <mxCell id="my7_cBCObxHFk0cWhPBb-44" value="Tesselator" style="rounded=0;whiteSpace=wrap;html=1;" parent="1" vertex="1">
          <mxGeometry x="800" y="340" width="120" height="60" as="geometry" />
        </mxCell>
        <mxCell id="my7_cBCObxHFk0cWhPBb-46" style="edgeStyle=orthogonalEdgeStyle;rounded=0;orthogonalLoop=1;jettySize=auto;html=1;exitX=1;exitY=0.5;exitDx=0;exitDy=0;entryX=0.008;entryY=0.622;entryDx=0;entryDy=0;entryPerimeter=0;" parent="1" source="my7_cBCObxHFk0cWhPBb-40" target="my7_cBCObxHFk0cWhPBb-43" edge="1">
          <mxGeometry relative="1" as="geometry" />
        </mxCell>
        <mxCell id="my7_cBCObxHFk0cWhPBb-53" style="edgeStyle=orthogonalEdgeStyle;rounded=0;orthogonalLoop=1;jettySize=auto;html=1;exitX=0.5;exitY=1;exitDx=0;exitDy=0;entryX=0.5;entryY=0;entryDx=0;entryDy=0;" parent="1" source="my7_cBCObxHFk0cWhPBb-49" target="my7_cBCObxHFk0cWhPBb-51" edge="1">
          <mxGeometry relative="1" as="geometry" />
        </mxCell>
        <mxCell id="my7_cBCObxHFk0cWhPBb-54" style="edgeStyle=orthogonalEdgeStyle;rounded=0;orthogonalLoop=1;jettySize=auto;html=1;exitX=0;exitY=0.5;exitDx=0;exitDy=0;entryX=0.5;entryY=0;entryDx=0;entryDy=0;" parent="1" source="my7_cBCObxHFk0cWhPBb-49" target="my7_cBCObxHFk0cWhPBb-52" edge="1">
          <mxGeometry relative="1" as="geometry" />
        </mxCell>
        <mxCell id="my7_cBCObxHFk0cWhPBb-71" style="edgeStyle=orthogonalEdgeStyle;rounded=0;orthogonalLoop=1;jettySize=auto;html=1;exitX=1;exitY=0.5;exitDx=0;exitDy=0;entryX=0;entryY=0.5;entryDx=0;entryDy=0;" parent="1" source="my7_cBCObxHFk0cWhPBb-49" target="my7_cBCObxHFk0cWhPBb-70" edge="1">
          <mxGeometry relative="1" as="geometry" />
        </mxCell>
        <mxCell id="my7_cBCObxHFk0cWhPBb-49" value="EngineTypes" style="rounded=0;whiteSpace=wrap;html=1;" parent="1" vertex="1">
          <mxGeometry x="-640" y="640" width="120" height="60" as="geometry" />
        </mxCell>
        <mxCell id="my7_cBCObxHFk0cWhPBb-58" style="edgeStyle=orthogonalEdgeStyle;rounded=0;orthogonalLoop=1;jettySize=auto;html=1;exitX=1;exitY=0.5;exitDx=0;exitDy=0;" parent="1" source="my7_cBCObxHFk0cWhPBb-51" target="my7_cBCObxHFk0cWhPBb-57" edge="1">
          <mxGeometry relative="1" as="geometry" />
        </mxCell>
        <mxCell id="my7_cBCObxHFk0cWhPBb-59" style="edgeStyle=orthogonalEdgeStyle;rounded=0;orthogonalLoop=1;jettySize=auto;html=1;exitX=0.5;exitY=1;exitDx=0;exitDy=0;entryX=0.5;entryY=0;entryDx=0;entryDy=0;" parent="1" source="my7_cBCObxHFk0cWhPBb-51" target="my7_cBCObxHFk0cWhPBb-55" edge="1">
          <mxGeometry relative="1" as="geometry" />
        </mxCell>
        <mxCell id="my7_cBCObxHFk0cWhPBb-63" style="edgeStyle=orthogonalEdgeStyle;rounded=0;orthogonalLoop=1;jettySize=auto;html=1;exitX=1;exitY=0.5;exitDx=0;exitDy=0;entryX=0;entryY=0.5;entryDx=0;entryDy=0;" parent="1" source="my7_cBCObxHFk0cWhPBb-51" target="my7_cBCObxHFk0cWhPBb-56" edge="1">
          <mxGeometry relative="1" as="geometry" />
        </mxCell>
        <mxCell id="my7_cBCObxHFk0cWhPBb-65" style="edgeStyle=orthogonalEdgeStyle;rounded=0;orthogonalLoop=1;jettySize=auto;html=1;exitX=0;exitY=0.5;exitDx=0;exitDy=0;entryX=0;entryY=0.5;entryDx=0;entryDy=0;" parent="1" source="my7_cBCObxHFk0cWhPBb-51" target="my7_cBCObxHFk0cWhPBb-64" edge="1">
          <mxGeometry relative="1" as="geometry">
            <Array as="points">
              <mxPoint x="-660" y="790" />
              <mxPoint x="-660" y="990" />
            </Array>
          </mxGeometry>
        </mxCell>
        <mxCell id="my7_cBCObxHFk0cWhPBb-51" value="Entity" style="rounded=0;whiteSpace=wrap;html=1;" parent="1" vertex="1">
          <mxGeometry x="-640" y="760" width="120" height="60" as="geometry" />
        </mxCell>
        <mxCell id="my7_cBCObxHFk0cWhPBb-67" style="edgeStyle=orthogonalEdgeStyle;rounded=0;orthogonalLoop=1;jettySize=auto;html=1;exitX=0.5;exitY=1;exitDx=0;exitDy=0;entryX=0.5;entryY=0;entryDx=0;entryDy=0;" parent="1" source="my7_cBCObxHFk0cWhPBb-52" target="my7_cBCObxHFk0cWhPBb-66" edge="1">
          <mxGeometry relative="1" as="geometry" />
        </mxCell>
        <mxCell id="my7_cBCObxHFk0cWhPBb-69" style="edgeStyle=orthogonalEdgeStyle;rounded=0;orthogonalLoop=1;jettySize=auto;html=1;exitX=0;exitY=0.5;exitDx=0;exitDy=0;entryX=1;entryY=0.5;entryDx=0;entryDy=0;" parent="1" source="my7_cBCObxHFk0cWhPBb-52" target="my7_cBCObxHFk0cWhPBb-68" edge="1">
          <mxGeometry relative="1" as="geometry" />
        </mxCell>
        <mxCell id="my7_cBCObxHFk0cWhPBb-52" value="Item" style="rounded=0;whiteSpace=wrap;html=1;" parent="1" vertex="1">
          <mxGeometry x="-827" y="760" width="120" height="60" as="geometry" />
        </mxCell>
        <mxCell id="my7_cBCObxHFk0cWhPBb-55" value="Bones" style="rounded=0;whiteSpace=wrap;html=1;" parent="1" vertex="1">
          <mxGeometry x="-640" y="860" width="120" height="60" as="geometry" />
        </mxCell>
        <mxCell id="my7_cBCObxHFk0cWhPBb-56" value="Model" style="rounded=0;whiteSpace=wrap;html=1;" parent="1" vertex="1">
          <mxGeometry x="-473" y="820" width="120" height="60" as="geometry" />
        </mxCell>
        <mxCell id="my7_cBCObxHFk0cWhPBb-57" value="Skeleton" style="rounded=0;whiteSpace=wrap;html=1;" parent="1" vertex="1">
          <mxGeometry x="-473" y="700" width="120" height="60" as="geometry" />
        </mxCell>
        <mxCell id="my7_cBCObxHFk0cWhPBb-64" value="PhysicsBody" style="rounded=0;whiteSpace=wrap;html=1;" parent="1" vertex="1">
          <mxGeometry x="-640" y="960" width="120" height="60" as="geometry" />
        </mxCell>
        <mxCell id="my7_cBCObxHFk0cWhPBb-66" value="StaticModel" style="rounded=0;whiteSpace=wrap;html=1;" parent="1" vertex="1">
          <mxGeometry x="-827" y="860" width="120" height="60" as="geometry" />
        </mxCell>
        <mxCell id="my7_cBCObxHFk0cWhPBb-68" value="PhysicsBody" style="rounded=0;whiteSpace=wrap;html=1;" parent="1" vertex="1">
          <mxGeometry x="-990" y="760" width="120" height="60" as="geometry" />
        </mxCell>
        <mxCell id="my7_cBCObxHFk0cWhPBb-73" style="edgeStyle=orthogonalEdgeStyle;rounded=0;orthogonalLoop=1;jettySize=auto;html=1;exitX=0.5;exitY=1;exitDx=0;exitDy=0;entryX=0.5;entryY=0;entryDx=0;entryDy=0;" parent="1" source="my7_cBCObxHFk0cWhPBb-70" target="my7_cBCObxHFk0cWhPBb-72" edge="1">
          <mxGeometry relative="1" as="geometry" />
        </mxCell>
        <mxCell id="my7_cBCObxHFk0cWhPBb-76" style="edgeStyle=orthogonalEdgeStyle;rounded=0;orthogonalLoop=1;jettySize=auto;html=1;exitX=1;exitY=0.5;exitDx=0;exitDy=0;" parent="1" source="my7_cBCObxHFk0cWhPBb-70" target="my7_cBCObxHFk0cWhPBb-75" edge="1">
          <mxGeometry relative="1" as="geometry" />
        </mxCell>
        <mxCell id="my7_cBCObxHFk0cWhPBb-70" value="RenderObject" style="rounded=0;whiteSpace=wrap;html=1;" parent="1" vertex="1">
          <mxGeometry x="-280" y="640" width="120" height="60" as="geometry" />
        </mxCell>
        <mxCell id="my7_cBCObxHFk0cWhPBb-72" value="Models" style="rounded=0;whiteSpace=wrap;html=1;" parent="1" vertex="1">
          <mxGeometry x="-280" y="760" width="120" height="60" as="geometry" />
        </mxCell>
        <mxCell id="my7_cBCObxHFk0cWhPBb-75" value="ModelMat" style="rounded=0;whiteSpace=wrap;html=1;" parent="1" vertex="1">
          <mxGeometry x="-120" y="760" width="120" height="60" as="geometry" />
        </mxCell>
        <mxCell id="QZp8M_Qck0eet74uFJcQ-2" value="GFXManager" style="rounded=0;whiteSpace=wrap;html=1;" vertex="1" parent="1">
          <mxGeometry x="750" y="240" width="120" height="60" as="geometry" />
        </mxCell>
      </root>
    </mxGraphModel>
  </diagram>
</mxfile>
